<svg width="24" height="7" viewBox="0 0 24 7" fill="none" xmlns="http://www.w3.org/2000/svg">
<path d="M1.65967 5.05371C1.21387 5.05371 0.853109 4.92122 0.577393 4.65625C0.301676 4.38949 0.163818 4.04305 0.163818 3.61694V3.54175C0.163818 3.24455 0.218424 2.98226 0.327637 2.75488C0.438639 2.52751 0.599772 2.35205 0.811035 2.22852C1.0223 2.10319 1.27295 2.04053 1.56299 2.04053C1.97119 2.04053 2.29346 2.16764 2.52979 2.42188C2.76611 2.67432 2.88428 3.02702 2.88428 3.47998V3.83179H1.08496C1.11719 3.99471 1.18791 4.12272 1.29712 4.21582C1.40633 4.30892 1.54777 4.35547 1.72144 4.35547C2.00789 4.35547 2.23169 4.25521 2.39282 4.05469L2.8064 4.54346C2.6936 4.69922 2.53337 4.82365 2.32568 4.91675C2.11979 5.00806 1.89779 5.05371 1.65967 5.05371ZM1.55762 2.73877C1.29264 2.73877 1.13509 2.91423 1.08496 3.26514H1.99805V3.19531C2.00163 3.05029 1.96493 2.9384 1.88794 2.85962C1.81095 2.77905 1.70085 2.73877 1.55762 2.73877ZM4.8877 5C4.85547 4.94092 4.82682 4.85409 4.80176 4.7395C4.63525 4.94897 4.40251 5.05371 4.10352 5.05371C3.82959 5.05371 3.59684 4.97135 3.40527 4.80664C3.2137 4.64014 3.11792 4.43156 3.11792 4.18091C3.11792 3.8658 3.23429 3.62769 3.46704 3.46655C3.69979 3.30542 4.03817 3.22485 4.48218 3.22485H4.76147V3.07178C4.76147 2.80501 4.646 2.67163 4.41504 2.67163C4.2002 2.67163 4.09277 2.77726 4.09277 2.98853H3.18774C3.18774 2.70744 3.3068 2.47917 3.54492 2.30371C3.78483 2.12826 4.09009 2.04053 4.46069 2.04053C4.8313 2.04053 5.12402 2.13094 5.33887 2.31177C5.55371 2.49259 5.66382 2.74056 5.66919 3.05566V4.34204C5.67277 4.60881 5.71395 4.81291 5.79272 4.95435V5H4.8877ZM4.32104 4.40918C4.43384 4.40918 4.52694 4.38501 4.60034 4.33667C4.67554 4.28833 4.72925 4.23372 4.76147 4.17285V3.70825H4.49829C4.18319 3.70825 4.02563 3.84969 4.02563 4.13257C4.02563 4.21493 4.05339 4.28206 4.10889 4.33398C4.16439 4.38411 4.23511 4.40918 4.32104 4.40918ZM7.69409 4.18359C7.69409 4.10661 7.65381 4.04484 7.57324 3.99829C7.49268 3.95174 7.3396 3.9034 7.11401 3.85327C6.88843 3.80314 6.70223 3.73779 6.55542 3.65723C6.40861 3.57487 6.29671 3.4755 6.21973 3.35913C6.14274 3.24276 6.10425 3.10938 6.10425 2.95898C6.10425 2.69222 6.21436 2.4729 6.43457 2.30103C6.65479 2.12736 6.94303 2.04053 7.29932 2.04053C7.68245 2.04053 7.9904 2.12736 8.22314 2.30103C8.45589 2.47469 8.57227 2.70296 8.57227 2.98584H7.66455C7.66455 2.75309 7.54191 2.63672 7.29663 2.63672C7.20174 2.63672 7.12207 2.66357 7.05762 2.71729C6.99316 2.76921 6.96094 2.83455 6.96094 2.91333C6.96094 2.9939 7.00033 3.05924 7.0791 3.10938C7.15788 3.15951 7.2832 3.20068 7.45508 3.23291C7.62874 3.26514 7.78092 3.30363 7.91162 3.34839C8.34847 3.49878 8.56689 3.76823 8.56689 4.15674C8.56689 4.42171 8.44873 4.63745 8.2124 4.80396C7.97786 4.97046 7.6735 5.05371 7.29932 5.05371C7.05046 5.05371 6.82845 5.00895 6.6333 4.91943C6.43815 4.82992 6.28597 4.70817 6.17676 4.5542C6.06755 4.40023 6.01294 4.2382 6.01294 4.06812H6.85889C6.86247 4.20239 6.90723 4.30086 6.99316 4.36353C7.0791 4.4244 7.18921 4.45483 7.32349 4.45483C7.44702 4.45483 7.53923 4.42977 7.6001 4.37964C7.66276 4.32951 7.69409 4.26416 7.69409 4.18359ZM10.1541 3.73242L10.6375 2.09424H11.6069L10.4226 5.48608L10.3716 5.60962C10.2033 5.9856 9.90609 6.17358 9.47998 6.17358C9.36182 6.17358 9.23739 6.15568 9.10669 6.11987V5.47266H9.22485C9.35197 5.47266 9.44865 5.45386 9.51489 5.41626C9.58293 5.38045 9.63306 5.3151 9.66528 5.22021L9.73779 5.02686L8.72803 2.09424H9.69482L10.1541 3.73242ZM14.5422 3.57129C14.5422 4.04753 14.4438 4.41366 14.2468 4.66968C14.0499 4.9257 13.7724 5.05371 13.4143 5.05371C13.1189 5.05371 12.8808 4.93644 12.7 4.7019L12.6624 5H11.8513V0.875H12.7563V2.32788C12.9246 2.13631 13.1422 2.04053 13.4089 2.04053C13.7706 2.04053 14.0499 2.17033 14.2468 2.42993C14.4438 2.68953 14.5422 3.05477 14.5422 3.52563V3.57129ZM13.6345 3.51489C13.6345 3.2356 13.5969 3.03687 13.5217 2.9187C13.4483 2.79875 13.3346 2.73877 13.1807 2.73877C12.9766 2.73877 12.8351 2.81665 12.7563 2.97241V4.1272C12.8333 4.28117 12.9766 4.35815 13.186 4.35815C13.3991 4.35815 13.5343 4.25431 13.5916 4.04663C13.6202 3.94458 13.6345 3.76733 13.6345 3.51489ZM16.5806 5C16.5483 4.94092 16.5197 4.85409 16.4946 4.7395C16.3281 4.94897 16.0954 5.05371 15.7964 5.05371C15.5225 5.05371 15.2897 4.97135 15.0981 4.80664C14.9066 4.64014 14.8108 4.43156 14.8108 4.18091C14.8108 3.8658 14.9272 3.62769 15.1599 3.46655C15.3927 3.30542 15.731 3.22485 16.175 3.22485H16.4543V3.07178C16.4543 2.80501 16.3389 2.67163 16.1079 2.67163C15.8931 2.67163 15.7856 2.77726 15.7856 2.98853H14.8806C14.8806 2.70744 14.9997 2.47917 15.2378 2.30371C15.4777 2.12826 15.783 2.04053 16.1536 2.04053C16.5242 2.04053 16.8169 2.13094 17.0317 2.31177C17.2466 2.49259 17.3567 2.74056 17.3621 3.05566V4.34204C17.3656 4.60881 17.4068 4.81291 17.4856 4.95435V5H16.5806ZM16.0139 4.40918C16.1267 4.40918 16.2198 4.38501 16.2932 4.33667C16.3684 4.28833 16.4221 4.23372 16.4543 4.17285V3.70825H16.1912C15.8761 3.70825 15.7185 3.84969 15.7185 4.13257C15.7185 4.21493 15.7463 4.28206 15.8018 4.33398C15.8573 4.38411 15.928 4.40918 16.0139 4.40918ZM18.6968 2.09424L18.7263 2.4353C18.9268 2.17212 19.2035 2.04053 19.5562 2.04053C19.8587 2.04053 20.0843 2.13094 20.2329 2.31177C20.3833 2.49259 20.4612 2.76473 20.4666 3.12817V5H19.5588V3.16577C19.5588 3.01896 19.5293 2.91154 19.4702 2.84351C19.4111 2.77368 19.3037 2.73877 19.1479 2.73877C18.9707 2.73877 18.8391 2.80859 18.7532 2.94824V5H17.8481V2.09424H18.6968ZM22.137 3.91772L21.8818 4.17285V5H20.9768V0.872314H21.8818V3.06372L21.9731 2.94287L22.6553 2.09424H23.7402L22.7224 3.28931L23.8074 5H22.7708L22.137 3.91772Z" fill="white"/>
</svg>
