<svg width="100" height="101" viewBox="0 0 100 101" fill="none" xmlns="http://www.w3.org/2000/svg">
<path fill-rule="evenodd" clip-rule="evenodd" d="M50 100.292C77.6144 100.292 100 77.9064 100 50.292C100 22.6776 77.6144 0.291992 50 0.291992C22.3856 0.291992 0 22.6776 0 50.292C0 77.9064 22.3856 100.292 50 100.292Z" fill="#2D314D"/>
<path fill-rule="evenodd" clip-rule="evenodd" d="M64.4541 80.5341L36.6648 80.5341C34.2783 80.5341 32.3444 78.6002 32.3448 76.2141L32.3448 25.96C32.3448 23.5744 34.2787 21.6405 36.6643 21.6405L64.4541 21.6409C66.8401 21.6405 68.7741 23.5744 68.7736 25.9605L68.7736 76.2146C68.7736 78.6002 66.8397 80.5341 64.4541 80.5341Z" fill="white"/>
<path fill-rule="evenodd" clip-rule="evenodd" d="M52.981 75.8097C52.981 77.147 51.8969 78.2311 50.5592 78.2315C49.2219 78.2315 48.1374 77.147 48.1374 75.8097C48.1374 74.4715 49.2214 73.3874 50.5592 73.3878C51.8969 73.3874 52.9815 74.4719 52.981 75.8097Z" fill="#DCDCDC"/>
<mask id="mask0" mask-type="alpha" maskUnits="userSpaceOnUse" x="14" y="12" width="73" height="73">
<path d="M62.2341 70.9928L38.8845 70.9928C36.8374 70.9928 35.1779 69.3333 35.1779 67.2862L35.1784 28.9897C35.1784 26.9427 36.8374 25.2836 38.8845 25.2836L62.2341 25.2836C64.2811 25.2836 65.9402 26.9427 65.9402 28.9897L65.9406 67.2862C65.9406 69.3333 64.2811 70.9928 62.2341 70.9928Z" fill="white"/>
</mask>
<g mask="url(#mask0)">
<path d="M62.2341 70.9928L38.8845 70.9928C36.8374 70.9928 35.1779 69.3333 35.1779 67.2862L35.1784 28.9897C35.1784 26.9427 36.8374 25.2836 38.8845 25.2836L62.2341 25.2836C64.2811 25.2836 65.9402 26.9427 65.9402 28.9897L65.9406 67.2862C65.9406 69.3333 64.2811 70.9928 62.2341 70.9928Z" fill="#FAFAFA"/>
<path opacity="0.1" fill-rule="evenodd" clip-rule="evenodd" d="M29.3747 75.7844C27.9641 75.6034 27.3731 77.5542 28.6509 78.1794C31.3981 79.5239 34.8702 80.958 38.8306 82.0192C78.514 92.6523 100.996 62.6536 107.029 40.1376C108.955 32.95 105.529 22.8922 95.7209 20.2642C86.622 17.8262 78.1294 23.9437 76.0168 31.8278C70.9812 50.6211 60.6202 79.7901 29.3747 75.7844Z" fill="#668AFE"/>
<path d="M42.3077 30.1235C48.4097 24.0216 48.4097 14.1283 42.3077 8.02641C36.2058 1.92446 26.3126 1.92446 20.2107 8.02641C14.1087 14.1283 14.1087 24.0216 20.2107 30.1235C26.3126 36.2254 36.2058 36.2254 42.3077 30.1235Z" fill="#FAEAEA"/>
<path fill-rule="evenodd" clip-rule="evenodd" d="M49.7691 38L46 45.4739H48.0887L51.8582 38H49.7691Z" fill="url(#paint0_linear)"/>
<path opacity="0.5" fill-rule="evenodd" clip-rule="evenodd" d="M52.3403 38L48.5708 45.4739H50.6595L54.429 38H52.3403Z" fill="url(#paint1_linear)"/>
<path opacity="0.15" fill-rule="evenodd" clip-rule="evenodd" d="M54.9112 38L51.1421 45.4739H53.2308L56.9999 38H54.9112Z" fill="url(#paint2_linear)"/>
<path d="M39.4403 54.0213C40.1056 54.0213 40.6421 53.6097 40.8287 52.9514H39.9197C39.832 53.1202 39.6538 53.2219 39.4403 53.2219C39.1518 53.2219 38.9587 53.0509 38.8992 52.72H40.8678C40.8797 52.6307 40.8867 52.5439 40.8867 52.4569C40.8867 51.6106 40.295 50.947 39.4403 50.947C38.6081 50.947 38 51.5976 38 52.482C38 53.3633 38.613 54.0213 39.4403 54.0213V54.0213ZM39.9871 52.1696H38.915C38.989 51.8831 39.174 51.7258 39.4403 51.7258C39.7158 51.7258 39.9068 51.8813 39.9871 52.1699V52.1696ZM42.5403 54.021C42.8482 54.021 43.1234 53.9109 43.3403 53.7195L43.4187 53.9236H44.1247V51.0386H43.4439L43.3506 51.2619C43.1313 51.0653 42.8526 50.9518 42.5403 50.9518C41.7295 50.9518 41.1498 51.5875 41.1498 52.481C41.1498 53.3775 41.7295 54.0213 42.5403 54.0213V54.021ZM42.6625 53.1412C42.3203 53.1412 42.0689 52.8601 42.0689 52.4833C42.0689 52.109 42.3182 51.8278 42.6625 51.8278C43.0044 51.8278 43.2559 52.109 43.2559 52.4833C43.2559 52.8601 43.0044 53.1412 42.6625 53.1412ZM45.7235 54.021C46.4279 54.021 46.8955 53.6267 46.8955 53.0238C46.8955 52.2922 46.3388 52.1975 45.9199 52.1166C45.6679 52.0676 45.465 52.0293 45.465 51.8654C45.465 51.7316 45.5634 51.6527 45.7099 51.6527C45.8755 51.6527 45.9891 51.7382 45.9891 51.9225H46.8445C46.8342 51.3381 46.3966 50.9473 45.7211 50.9473C45.0419 50.9473 44.5889 51.3203 44.5889 51.8989C44.5889 52.5985 45.134 52.7335 45.5453 52.8058C45.8 52.8517 46.0006 52.8992 46.0006 53.0656C46.0006 53.2146 45.8739 53.2889 45.7402 53.2889C45.5672 53.2889 45.4324 53.1917 45.4324 52.9809H44.553C44.5614 53.6059 45.0006 54.0213 45.7235 54.0213V54.021ZM47.6128 55C48.2976 55 48.626 54.681 48.9836 53.7982L50.0948 51.0417H49.1138L48.5892 52.6309L48.0266 51.0417H47.0341L48.1299 53.6883C48.0063 54.0471 47.9006 54.1461 47.5515 54.1461H47.3V55H47.6128ZM51.9289 54.021C52.7453 54.021 53.3221 53.3828 53.3221 52.4863C53.3221 51.5898 52.7455 50.9516 51.9289 50.9516C51.6965 50.9496 51.4682 51.0185 51.27 51.1505V50H50.3673V53.9266H51.043L51.1293 53.7124C51.3446 53.9081 51.6196 54.021 51.9289 54.021ZM51.8069 53.1412C51.4647 53.1412 51.2133 52.8601 51.2133 52.4866C51.2133 52.1095 51.4647 51.8283 51.8069 51.8283C52.1489 51.8283 52.4003 52.1095 52.4003 52.4863C52.4003 52.8601 52.1468 53.141 51.8069 53.141V53.1412ZM54.9787 54.021C55.2866 54.021 55.5618 53.9109 55.7787 53.7195L55.8571 53.9236H56.5632V51.0386H55.8825L55.789 51.2619C55.57 51.0653 55.291 50.9518 54.9787 50.9518C54.1679 50.9518 53.5885 51.5875 53.5885 52.481C53.5885 53.3775 54.1679 54.0213 54.9787 54.0213V54.021ZM55.1009 53.1412C54.7587 53.1412 54.5073 52.8601 54.5073 52.4833C54.5073 52.109 54.7569 51.8278 55.1009 51.8278C55.4431 51.8278 55.6945 52.109 55.6945 52.4833C55.6945 52.8601 55.4431 53.1412 55.1009 53.1412ZM58.0522 53.9266V52.3861C58.0522 52.0189 58.216 51.8024 58.5008 51.8024C58.7308 51.8024 58.8467 51.9691 58.8467 52.3049V53.9264H59.7599V52.1678C59.7599 51.4327 59.3557 50.9567 58.7399 50.9567C58.397 50.9567 58.1024 51.1 57.9048 51.3393L57.7796 51.0419H57.1388V53.9269H58.0522V53.9266ZM61.259 53.9266V52.7066L61.9233 53.9266H63L62.0898 52.4168L62.9163 51.0417H61.8907L61.259 52.1719V50H60.3456V53.9266H61.259V53.9266Z" fill="#2D314D"/>
</g>
<defs>
<linearGradient id="paint0_linear" x1="50.2293" y1="38" x2="45.6728" y2="44.5302" gradientUnits="userSpaceOnUse">
<stop stop-color="#33D35E"/>
<stop offset="1" stop-color="#2AB6D9"/>
</linearGradient>
<linearGradient id="paint1_linear" x1="52.8001" y1="38" x2="48.2436" y2="44.5302" gradientUnits="userSpaceOnUse">
<stop stop-color="#33D35E"/>
<stop offset="1" stop-color="#2AB6D9"/>
</linearGradient>
<linearGradient id="paint2_linear" x1="55.3711" y1="38" x2="50.8145" y2="44.5299" gradientUnits="userSpaceOnUse">
<stop stop-color="#33D35E"/>
<stop offset="1" stop-color="#2AB6D9"/>
</linearGradient>
</defs>
</svg>
