<svg width="100" height="100" viewBox="0 0 100 100" fill="none" xmlns="http://www.w3.org/2000/svg">
<path fill-rule="evenodd" clip-rule="evenodd" d="M50 100C77.6144 100 100 77.6144 100 50C100 22.3856 77.6144 0 50 0C22.3856 0 0 22.3856 0 50C0 77.6144 22.3856 100 50 100Z" fill="#2D314D"/>
<mask id="mask0" mask-type="alpha" maskUnits="userSpaceOnUse" x="51" y="31" width="8" height="9">
<path d="M56.7412 31.1293C56.8187 31.0899 56.9037 31.0718 56.9868 31.0718C57.1606 31.0718 57.3281 31.1518 57.42 31.2937C58.17 32.4574 58.5993 33.8055 58.5993 35.2393C58.5993 36.6718 58.17 38.0199 57.42 39.1837C57.2831 39.393 56.9806 39.468 56.7412 39.3474C56.5031 39.228 56.4187 38.9599 56.555 38.7487C57.2231 37.7137 57.6043 36.518 57.605 35.2393C57.6043 33.9605 57.2231 32.7643 56.555 31.7287C56.4187 31.518 56.5037 31.2499 56.7412 31.1293ZM54.9331 31.9643C55.0118 31.9237 55.0981 31.9043 55.1831 31.9043C55.3543 31.9049 55.52 31.9824 55.6125 32.1218C56.2181 33.0374 56.565 34.1049 56.565 35.2393C56.565 36.3737 56.2181 37.4399 55.6125 38.3555C55.4737 38.5649 55.1693 38.6355 54.9325 38.5137C54.6962 38.3905 54.6143 38.1212 54.7537 37.9124C55.2743 37.1268 55.5712 36.2155 55.5712 35.2393C55.5712 34.2624 55.2743 33.3505 54.755 32.5662C54.6156 32.3555 54.6962 32.0862 54.9331 31.9643ZM53.1112 32.7955C53.1925 32.7512 53.2831 32.7299 53.3725 32.7299C53.5381 32.7299 53.7012 32.8037 53.795 32.938C54.2625 33.6074 54.5325 34.3968 54.5318 35.2393C54.5325 36.0805 54.2625 36.8718 53.795 37.5387C53.6512 37.7449 53.3443 37.8093 53.1112 37.6824C52.8768 37.5543 52.805 37.2849 52.9481 37.0793C53.3231 36.5437 53.5368 35.9155 53.5381 35.2393C53.5368 34.5624 53.3231 33.9355 52.9481 33.3987C52.805 33.193 52.8768 32.923 53.1112 32.7955ZM51.3481 33.6037C51.4368 33.5455 51.5412 33.5168 51.6437 33.5168C51.7956 33.5168 51.9462 33.578 52.0431 33.6943C52.2243 33.9099 52.3687 34.1518 52.4675 34.4118C52.5656 34.6718 52.6206 34.9505 52.6206 35.2393C52.6206 35.5274 52.5656 35.8062 52.4668 36.0662C52.3687 36.3262 52.2243 36.568 52.0425 36.783C51.8787 36.9774 51.5675 37.0187 51.3468 36.8749C51.1262 36.7299 51.0806 36.4549 51.2437 36.2605C51.3637 36.1174 51.46 35.9574 51.5243 35.7862C51.5906 35.6143 51.6262 35.4312 51.6262 35.2393C51.6262 35.0462 51.5906 34.863 51.5243 34.6918C51.46 34.5205 51.3643 34.3612 51.245 34.218C51.0806 34.023 51.1268 33.7487 51.3481 33.6037Z" fill="white"/>
</mask>
<g mask="url(#mask0)">
<path fill-rule="evenodd" clip-rule="evenodd" d="M48.0212 42.5299H61.7244V27.9468H48.0212V42.5299Z" fill="white"/>
</g>
<mask id="mask1" mask-type="alpha" maskUnits="userSpaceOnUse" x="33" y="22" width="34" height="54">
<path d="M40.3887 22.9844H60.2637C63.9074 22.9844 66.8887 25.9838 66.8887 29.6506V68.8169C66.8887 72.4844 63.9074 75.4837 60.2637 75.4837H40.3887C36.7449 75.4837 33.7637 72.4844 33.7637 68.8169V29.6506C33.7637 25.9838 36.7449 22.9844 40.3887 22.9844Z" fill="#2BB7DA"/>
</mask>
<g mask="url(#mask1)">
<path fill-rule="evenodd" clip-rule="evenodd" d="M30.6387 78.6086H70.0137V19.8586H30.6387V78.6086Z" fill="#2BB7DA"/>
</g>
<mask id="mask2" mask-type="alpha" maskUnits="userSpaceOnUse" x="56" y="65" width="5" height="7">
<path d="M56 68.4005C56 66.7899 57.3025 65.4836 58.91 65.4836C59.59 65.4836 60.2144 65.7168 60.7094 66.108C60.0325 66.6424 59.5975 67.4705 59.5975 68.4005C59.5975 69.3305 60.0325 70.1599 60.7094 70.6943C60.2144 71.0843 59.59 71.3174 58.91 71.3174C57.3025 71.3174 56 70.0111 56 68.4005Z" fill="white"/>
</mask>
<g mask="url(#mask2)">
<path fill-rule="evenodd" clip-rule="evenodd" d="M52.8743 74.4418H63.8343V62.3586H52.8743V74.4418Z" fill="#D61F27"/>
</g>
<mask id="mask3" mask-type="alpha" maskUnits="userSpaceOnUse" x="60" y="65" width="6" height="7">
<path d="M60.7095 66.108C61.2045 65.7168 61.8295 65.4836 62.5088 65.4836C64.117 65.4836 65.4195 66.7899 65.4195 68.4005C65.4195 70.0111 64.117 71.3174 62.5088 71.3174C61.8295 71.3174 61.2045 71.0843 60.7095 70.6943C61.387 70.1599 61.822 69.3305 61.822 68.4005C61.822 67.4705 61.387 66.6424 60.7095 66.108Z" fill="white"/>
</mask>
<g mask="url(#mask3)">
<path fill-rule="evenodd" clip-rule="evenodd" d="M57.5852 74.4418H68.5452V62.3586H57.5852V74.4418Z" fill="#F99D22"/>
</g>
<mask id="mask4" mask-type="alpha" maskUnits="userSpaceOnUse" x="59" y="66" width="3" height="5">
<path d="M59.6233 68.4006C59.6233 67.5125 60.0477 66.7231 60.7095 66.2131C61.372 66.7231 61.7964 67.5125 61.7964 68.4006C61.7964 69.2881 61.372 70.0781 60.7095 70.5888C60.0477 70.0781 59.6233 69.2881 59.6233 68.4006Z" fill="white"/>
</mask>
<g mask="url(#mask4)">
<path fill-rule="evenodd" clip-rule="evenodd" d="M56.4976 73.7131H64.9213V63.0881H56.4976V73.7131Z" fill="#F37038"/>
</g>
<mask id="mask5" mask-type="alpha" maskUnits="userSpaceOnUse" x="56" y="46" width="11" height="14">
<path d="M56.0361 48.345C56.0361 48.345 61.1318 46.7019 66.8749 46.7019V59.9782C61.9293 53.6519 58.6068 50.0125 56.0361 48.345Z" fill="white"/>
</mask>
<g mask="url(#mask5)">
<path fill-rule="evenodd" clip-rule="evenodd" d="M52.9104 63.1032H69.9992V43.5769H52.9104V63.1032Z" fill="#31D35C"/>
</g>
<mask id="mask6" mask-type="alpha" maskUnits="userSpaceOnUse" x="33" y="22" width="34" height="45">
<path d="M40.3749 22.9844H60.2499C63.9093 22.9844 66.8749 25.9687 66.8749 29.65V46.7019C66.8749 46.7019 57.2693 46.0469 46.7968 53.1169C37.9511 59.0887 33.7493 66.34 33.7493 66.34V29.65C33.7493 25.9687 36.7161 22.9844 40.3749 22.9844Z" fill="white"/>
</mask>
<g mask="url(#mask6)">
<path fill-rule="evenodd" clip-rule="evenodd" d="M30.625 69.4649H70V19.8586H30.625V69.4649Z" fill="#2AB6D9"/>
</g>
<mask id="mask7" mask-type="alpha" maskUnits="userSpaceOnUse" x="42" y="30" width="8" height="9">
<path d="M44.0962 30.2913H47.4087C48.3237 30.2913 49.0649 31.0381 49.0649 31.9581V36.9581C49.0649 37.8788 48.3237 38.625 47.4087 38.625H44.0962C43.1818 38.625 42.4399 37.8788 42.4399 36.9581V31.9581C42.4399 31.0381 43.1818 30.2913 44.0962 30.2913Z" fill="white"/>
</mask>
<g mask="url(#mask7)">
<path fill-rule="evenodd" clip-rule="evenodd" d="M39.3149 41.7494H52.1899V27.1663H39.3149V41.7494Z" fill="#FFF5A6"/>
</g>
<mask id="mask8" mask-type="alpha" maskUnits="userSpaceOnUse" x="51" y="30" width="9" height="9">
<path d="M57.1555 30.2969C57.233 30.2575 57.318 30.2388 57.4018 30.2388C57.5743 30.2388 57.7418 30.3188 57.8337 30.4606C58.5843 31.6244 59.013 32.9725 59.013 34.4056C59.013 35.8388 58.5843 37.1869 57.8337 38.3506C57.6968 38.56 57.3943 38.6344 57.1555 38.515C56.9174 38.395 56.8337 38.1269 56.9693 37.9156C57.6368 36.88 58.0174 35.685 58.0187 34.4056C58.0174 33.1269 57.6368 31.9313 56.9693 30.895C56.8337 30.685 56.9174 30.4169 57.1555 30.2969ZM55.3468 31.1313C55.4262 31.0906 55.5124 31.0713 55.5974 31.0713C55.768 31.0719 55.9343 31.1494 56.0268 31.2888C56.6324 32.2044 56.9787 33.2713 56.9787 34.4056C56.9787 35.54 56.6324 36.6069 56.0268 37.5225C55.888 37.7319 55.5837 37.8019 55.3462 37.68C55.1099 37.5569 55.0293 37.2888 55.168 37.0794C55.688 36.2938 55.9855 35.3825 55.9855 34.4056C55.9855 33.4294 55.688 32.5175 55.1693 31.7325C55.0293 31.5231 55.1099 31.2531 55.3468 31.1313ZM53.5249 31.9619C53.6062 31.9175 53.6968 31.8969 53.7855 31.8969C53.9524 31.8969 54.1149 31.9706 54.2087 32.105C54.6762 32.7744 54.9462 33.5638 54.9455 34.4056C54.9462 35.2469 54.6762 36.0388 54.2087 36.7056C54.0649 36.9119 53.7587 36.9763 53.5249 36.8494C53.2912 36.7213 53.2187 36.4519 53.3624 36.2456C53.7368 35.71 53.9505 35.0819 53.9518 34.4056C53.9505 33.7294 53.7368 33.1019 53.3624 32.5656C53.2187 32.3606 53.2912 32.09 53.5249 31.9619ZM51.7618 32.7713C51.8512 32.7125 51.9549 32.6838 52.058 32.6838C52.2099 32.6838 52.3599 32.745 52.4574 32.8613C52.638 33.0769 52.7824 33.3181 52.8812 33.5788C52.9799 33.8381 53.0343 34.1169 53.0343 34.4056C53.0343 34.6944 52.9799 34.9731 52.8805 35.2331C52.7824 35.4925 52.638 35.735 52.4574 35.95C52.2924 36.1444 51.9812 36.1856 51.7612 36.0419C51.5405 35.8969 51.4943 35.6213 51.658 35.4269C51.7774 35.2838 51.8737 35.1238 51.9387 34.9531C52.0043 34.7806 52.0399 34.5981 52.0399 34.4056C52.0399 34.2131 52.0043 34.03 51.9387 33.8588C51.8737 33.6869 51.7787 33.5281 51.6593 33.385C51.4943 33.19 51.5412 32.9156 51.7618 32.7713Z" fill="white"/>
</mask>
<g mask="url(#mask8)">
<path fill-rule="evenodd" clip-rule="evenodd" d="M48.4348 41.6969H62.1379V27.1138H48.4348V41.6969Z" fill="white"/>
</g>
<path d="M37.9329 69.3771C38.3638 69.3771 38.7113 69.1338 38.8321 68.7447H38.2434C38.1866 68.8444 38.0712 68.9045 37.9329 68.9045C37.746 68.9045 37.6209 68.8035 37.5824 68.6079H38.8575C38.8652 68.5551 38.8698 68.5038 38.8698 68.4523C38.8698 67.9521 38.4865 67.5598 37.9329 67.5598C37.3939 67.5598 37 67.9444 37 68.4672C37 68.9881 37.397 69.3771 37.9329 69.3771ZM38.287 68.2825H37.5927C37.6406 68.1132 37.7604 68.0202 37.9329 68.0202C38.1113 68.0202 38.2351 68.112 38.287 68.2825ZM39.9408 69.3769C40.1402 69.3769 40.3185 69.3118 40.459 69.1987L40.5097 69.3193H40.967V67.614H40.526L40.4656 67.746C40.3236 67.6297 40.1431 67.5627 39.9408 67.5627C39.4156 67.5627 39.0402 67.9384 39.0402 68.4666C39.0402 68.9965 39.4156 69.3769 39.9408 69.3769ZM40.0199 68.8569C39.7983 68.8569 39.6354 68.6907 39.6354 68.4679C39.6354 68.2467 39.7969 68.0805 40.0199 68.0805C40.2414 68.0805 40.4043 68.2467 40.4043 68.4679C40.4043 68.6907 40.2414 68.8569 40.0199 68.8569ZM42.0025 69.3769C42.4588 69.3769 42.7617 69.1438 42.7617 68.7874C42.7617 68.355 42.4011 68.299 42.1297 68.2512C41.9666 68.2222 41.8351 68.1996 41.8351 68.1027C41.8351 68.0236 41.8989 67.977 41.9938 67.977C42.101 67.977 42.1746 68.0275 42.1746 68.1364H42.7286C42.722 67.791 42.4385 67.56 42.001 67.56C41.5611 67.56 41.2677 67.7804 41.2677 68.1224C41.2677 68.536 41.6208 68.6158 41.8871 68.6586C42.0521 68.6857 42.182 68.7138 42.182 68.8122C42.182 68.9002 42.1 68.9442 42.0134 68.9442C41.9013 68.9442 41.814 68.8867 41.814 68.7621H41.2444C41.2499 69.1315 41.5343 69.3769 42.0025 69.3769ZM43.2263 69.9556C43.6698 69.9556 43.8826 69.7671 44.1142 69.2452L44.8339 67.6158H44.1985L43.8587 68.5552L43.4943 67.6158H42.8514L43.5612 69.1803C43.4811 69.3924 43.4127 69.4509 43.1865 69.4509H43.0237V69.9556H43.2263ZM46.0218 69.3769C46.5506 69.3769 46.9242 68.9997 46.9242 68.4697C46.9242 67.9398 46.5508 67.5625 46.0218 67.5625C45.8713 67.5613 45.7234 67.6021 45.595 67.6801V67H45.0104V69.3211H45.448L45.5039 69.1945C45.6434 69.3102 45.8215 69.3769 46.0218 69.3769ZM45.9428 68.8569C45.7212 68.8569 45.5583 68.6907 45.5583 68.4699C45.5583 68.247 45.7212 68.0807 45.9428 68.0807C46.1643 68.0807 46.3272 68.247 46.3272 68.4697C46.3272 68.6907 46.1629 68.8569 45.9428 68.8569ZM47.9972 69.3769C48.1966 69.3769 48.3749 69.3118 48.5154 69.1987L48.5662 69.3193H49.0235V67.614H48.5826L48.522 67.746C48.3802 67.6297 48.1995 67.5627 47.9972 67.5627C47.472 67.5627 47.0968 67.9384 47.0968 68.4666C47.0968 68.9965 47.472 69.3769 47.9972 69.3769ZM48.0764 68.8569C47.8547 68.8569 47.6919 68.6907 47.6919 68.4679C47.6919 68.2467 47.8535 68.0805 48.0764 68.0805C48.298 68.0805 48.4609 68.2467 48.4609 68.4679C48.4609 68.6907 48.298 68.8569 48.0764 68.8569ZM49.988 69.3211V68.4104C49.988 68.1934 50.094 68.0655 50.2785 68.0655C50.4275 68.0655 50.5025 68.164 50.5025 68.3625V69.321H51.094V68.2815C51.094 67.8469 50.8322 67.5655 50.4334 67.5655C50.2113 67.5655 50.0205 67.6503 49.8925 67.7917L49.8114 67.6159H49.3963V69.3213L49.988 69.3211ZM52.065 69.3211V68.5999L52.4953 69.3211H53.1927L52.6031 68.4286L53.1384 67.6158H52.4741L52.065 68.2839V67H51.4734V69.3211H52.065Z" fill="#2D314D"/>
</svg>
