<svg width="100" height="100" viewBox="0 0 100 100" fill="none" xmlns="http://www.w3.org/2000/svg">
<path fill-rule="evenodd" clip-rule="evenodd" d="M99.5181 50.1077C99.5181 77.5818 77.2459 99.8535 49.7722 99.8535C22.2976 99.8535 0.0258789 77.5818 0.0258789 50.1077C0.0258789 22.6335 22.2976 0.361816 49.7722 0.361816C77.2459 0.361816 99.5181 22.6335 99.5181 50.1077Z" fill="#EFF4FF"/>
<mask id="mask0" mask-type="alpha" maskUnits="userSpaceOnUse" x="0" y="0" width="100" height="57">
<path d="M0 0.361572H99.4921V56.4279H0V0.361572Z" fill="white"/>
</mask>
<g mask="url(#mask0)">
<path fill-rule="evenodd" clip-rule="evenodd" d="M99.0944 56.4279C99.3568 54.3582 99.492 52.2489 99.492 50.1074C99.492 22.6338 77.2198 0.361572 49.7461 0.361572C22.2724 0.361572 -0.000244141 22.6338 -0.000244141 50.1074C-0.000244141 52.2489 0.135366 54.3582 0.397805 56.4279C11.6524 52.0821 29.5676 49.2586 49.7461 49.2586C69.9246 49.2586 87.8398 52.0821 99.0944 56.4279Z" fill="#2D314D"/>
</g>
<path fill-rule="evenodd" clip-rule="evenodd" d="M49.7461 99.8538C71.2358 99.8538 89.5422 86.227 96.4978 67.1436H2.99438C9.94999 86.227 28.2563 99.8538 49.7461 99.8538Z" fill="#2D314D"/>
<path fill-rule="evenodd" clip-rule="evenodd" d="M49.7462 49.2588C29.5677 49.2588 11.6526 52.0822 0.397949 56.4281C0.853071 60.0159 1.69307 63.4832 2.87014 66.791C2.9121 66.9081 2.95161 67.0266 2.99453 67.1437H96.498C96.5409 67.0266 96.5804 66.9081 96.6223 66.791C97.7994 63.4832 98.6394 60.0159 99.0945 56.4281C87.8399 52.0822 69.9248 49.2588 49.7462 49.2588Z" fill="#CDF0E5"/>
<mask id="mask1" mask-type="alpha" maskUnits="userSpaceOnUse" x="0" y="0" width="100" height="100">
<path d="M0.0258789 50.2542C0.0258789 77.7278 22.2976 100 49.7717 100C77.2459 100 99.5181 77.7278 99.5181 50.2542C99.5181 22.78 77.2459 0.507812 49.7717 0.507812C22.2976 0.507812 0.0258789 22.78 0.0258789 50.2542Z" fill="#2D314D"/>
</mask>
<g mask="url(#mask1)">
<path fill-rule="evenodd" clip-rule="evenodd" d="M68.3042 64.6775C68.3042 67.0117 66.4121 68.9039 64.0784 68.9039C61.7442 68.9039 59.8525 67.0117 59.8525 64.6775C59.8525 62.3434 61.7442 60.4517 64.0784 60.4517C66.4121 60.4517 68.3042 62.3434 68.3042 64.6775Z" fill="#7992ED"/>
<path fill-rule="evenodd" clip-rule="evenodd" d="M66.4833 64.6776C66.4833 66.0059 65.4063 67.0829 64.078 67.0829C62.7497 67.0829 61.6731 66.0059 61.6731 64.6776C61.6731 63.3493 62.7497 62.2722 64.078 62.2722C65.4063 62.2722 66.4833 63.3493 66.4833 64.6776Z" fill="white"/>
<path fill-rule="evenodd" clip-rule="evenodd" d="M31.8179 68.9039C29.4842 68.9039 27.592 67.0117 27.592 64.6775C27.592 62.3434 29.4842 60.4517 31.8179 60.4517C34.152 60.4517 36.0437 62.3434 36.0437 64.6775C36.0437 67.0117 34.152 68.9039 31.8179 68.9039Z" fill="#7992ED"/>
<path fill-rule="evenodd" clip-rule="evenodd" d="M34.2231 64.6776C34.2231 66.0059 33.1465 67.0829 31.8177 67.0829C30.4899 67.0829 29.4128 66.0059 29.4128 64.6776C29.4128 63.3493 30.4899 62.2722 31.8177 62.2722C33.1465 62.2722 34.2231 63.3493 34.2231 64.6776Z" fill="white"/>
<path d="M4.44409 68.9626H7.12702" stroke="#939598" stroke-width="0.5" stroke-linecap="round" stroke-linejoin="round"/>
<path d="M11.9189 68.9626H90.0204" stroke="#939598" stroke-width="0.5" stroke-linecap="round" stroke-linejoin="round" stroke-dasharray="10.81 9.82"/>
<path d="M92.4163 68.9626H95.0992" stroke="#939598" stroke-width="0.5" stroke-linecap="round" stroke-linejoin="round"/>
<path fill-rule="evenodd" clip-rule="evenodd" d="M22.8526 59.0005H53.7204C55.0882 59.0005 56.197 57.8917 56.197 56.5234V34.7591C56.197 33.3913 55.0882 32.2825 53.7204 32.2825H22.8526C21.4848 32.2825 20.376 33.3913 20.376 34.7591V56.5234C20.376 57.8917 21.4848 59.0005 22.8526 59.0005Z" fill="#31D35C"/>
<path fill-rule="evenodd" clip-rule="evenodd" d="M78.7807 59.6569H78.0709C77.8636 59.6569 77.6953 59.4887 77.6953 59.2813V51.8823C77.6953 51.2482 77.4436 50.6399 76.9948 50.1911L66.8012 39.9979C65.7597 38.9555 64.346 38.3701 62.8724 38.3701H58.5563C57.2548 38.3701 56.2002 39.4252 56.2002 40.7262V56.7438C56.2002 57.8711 55.2865 58.7852 54.1587 58.7852H23.2695C22.9553 58.7852 22.7002 59.0399 22.7002 59.3545V64.096C22.7002 64.4106 22.9553 64.6657 23.2695 64.6657H25.7441C25.7441 64.6657 25.8324 58.7804 31.7173 58.7804C37.6012 58.7804 37.8919 64.6657 37.8919 64.6657H56.8134C56.8334 64.6657 56.8524 64.6618 56.8719 64.6594C56.8919 64.6613 56.9104 64.6657 56.9304 64.6657H58.0607C58.0607 64.6657 58.4261 58.6828 64.0782 58.6828C69.7304 58.6828 70.209 64.6657 70.209 64.6657H78.4256C78.8295 64.6657 79.1563 64.3384 79.1563 63.935V60.0326C79.1563 59.8248 78.9885 59.6569 78.7807 59.6569Z" fill="#BDBDBD"/>
<path fill-rule="evenodd" clip-rule="evenodd" d="M61.0547 42.4399H63.5801C63.8991 42.4399 64.205 42.5668 64.4303 42.7921L68.8445 47.2058C69.6016 47.9634 69.0655 49.259 67.9938 49.259H61.0547C60.3908 49.259 59.8523 48.7204 59.8523 48.0565V43.6424C59.8523 42.9785 60.3908 42.4399 61.0547 42.4399Z" fill="#FAFAFA"/>
<path fill-rule="evenodd" clip-rule="evenodd" d="M77.7011 59.2578H75.0484C74.8138 59.2578 74.624 59.068 74.624 58.8339V56.1348C74.624 55.9007 74.8138 55.7109 75.0484 55.7109H77.7011V59.2578Z" fill="#FFE9D0"/>
<path d="M58.0608 64.6656C58.0608 64.6656 58.3564 58.6938 64.0784 58.6938C69.7998 58.6938 70.2086 64.6656 70.2086 64.6656" stroke="#9E9E9E" stroke-width="3" stroke-linecap="round"/>
<path d="M25.7441 64.6656C25.7441 64.6656 26.0398 58.6938 31.7617 58.6938C37.4827 58.6938 37.8915 64.6656 37.8915 64.6656" stroke="#9E9E9E" stroke-width="3" stroke-linecap="round"/>
</g>
</svg>
