<svg width="100" height="100" viewBox="0 0 100 100" fill="none" xmlns="http://www.w3.org/2000/svg">
<mask id="mask0" mask-type="alpha" maskUnits="userSpaceOnUse" x="0" y="0" width="100" height="100">
<path d="M0 0H99.9994V99.9999H0V0Z" fill="white"/>
</mask>
<g mask="url(#mask0)">
<path fill-rule="evenodd" clip-rule="evenodd" d="M50 99.9998C77.6144 99.9998 99.9994 77.6148 99.9994 49.9998C99.9994 22.3854 77.6144 -0.000244141 50 -0.000244141C22.3856 -0.000244141 0 22.3854 0 49.9998C0 77.6148 22.3856 99.9998 50 99.9998Z" fill="#2D314D"/>
</g>
<mask id="mask1" mask-type="alpha" maskUnits="userSpaceOnUse" x="0" y="0" width="100" height="100">
<path d="M0 0H99.9994V99.9999H0V0Z" fill="white"/>
</mask>
<g mask="url(#mask1)">
<path fill-rule="evenodd" clip-rule="evenodd" d="M0 49.9998C0 77.6148 22.3856 99.9998 50 99.9998C77.6144 99.9998 99.9994 77.6148 99.9994 49.9998C99.9994 22.3854 77.6144 -0.000244141 50 -0.000244141C22.3856 -0.000244141 0 22.3854 0 49.9998Z" fill="#2D314D"/>
</g>
<mask id="mask2" mask-type="alpha" maskUnits="userSpaceOnUse" x="0" y="0" width="100" height="100">
<path d="M0 0H99.9994V99.9999H0V0Z" fill="white"/>
</mask>
<g mask="url(#mask2)">
<path fill-rule="evenodd" clip-rule="evenodd" d="M0 49.9998C0 77.6148 22.3856 99.9998 50 99.9998C77.6144 99.9998 99.9994 77.6148 99.9994 49.9998C99.9994 22.3854 77.6144 -0.000244141 50 -0.000244141C22.3856 -0.000244141 0 22.3854 0 49.9998Z" fill="#2D314D"/>
</g>
<path fill-rule="evenodd" clip-rule="evenodd" d="M19.375 31.4998H80.625C82.6956 31.4998 84.375 33.1791 84.375 35.2498V65.2498C84.375 67.3204 82.6956 68.9998 80.625 68.9998H19.375C17.3044 68.9998 15.625 67.3204 15.625 65.2498V35.2498C15.625 33.1791 17.3044 31.4998 19.375 31.4998Z" fill="white"/>
<path fill-rule="evenodd" clip-rule="evenodd" d="M43.3154 50.386C43.3154 55.7366 38.9786 60.0735 33.6279 60.0735C28.2773 60.0735 23.9404 55.7366 23.9404 50.386C23.9404 45.0354 28.2773 40.6985 33.6279 40.6985C38.9786 40.6985 43.3154 45.0354 43.3154 50.386Z" fill="#E6EAF6"/>
<mask id="mask3" mask-type="alpha" maskUnits="userSpaceOnUse" x="23" y="40" width="21" height="21">
<path d="M23.9407 50.3857C23.9407 55.7364 28.2775 60.0739 33.6282 60.0739C38.9782 60.0739 43.3151 55.7364 43.3151 50.3857C43.3151 45.0357 38.9782 40.6982 33.6282 40.6982C28.2775 40.6982 23.9407 45.0357 23.9407 50.3857Z" fill="white"/>
</mask>
<g mask="url(#mask3)">
<path fill-rule="evenodd" clip-rule="evenodd" d="M27.9119 61.8387C27.9119 61.8387 29.1412 61.7719 33.0662 61.7719C36.3987 61.7719 39.7362 61.8387 39.7362 61.8387C39.7362 61.5344 38.8875 58.8675 38.5237 58.5037C38.16 58.14 35.9775 57.7087 35.1644 57.7087C35.1644 57.7087 34.9381 58.245 33.9644 58.245C32.99 58.245 32.6225 57.7087 32.6225 57.7087C31.7625 57.7087 29.2862 58.1544 28.8219 58.5037C28.1269 59.0256 27.9119 61.8387 27.9119 61.8387Z" fill="#FF8382"/>
</g>
<mask id="mask4" mask-type="alpha" maskUnits="userSpaceOnUse" x="23" y="40" width="21" height="21">
<path d="M23.9407 50.3857C23.9407 55.7364 28.2775 60.0739 33.6282 60.0739C38.9782 60.0739 43.3151 55.7364 43.3151 50.3857C43.3151 45.0357 38.9782 40.6982 33.6282 40.6982C28.2775 40.6982 23.9407 45.0357 23.9407 50.3857Z" fill="white"/>
</mask>
<g mask="url(#mask4)">
<path fill-rule="evenodd" clip-rule="evenodd" d="M32.7424 55.955C32.7424 55.955 33.058 55.6707 33.9586 55.6707C34.8593 55.6707 35.048 55.955 35.048 55.955V57.2819C35.048 57.7238 35.3011 57.8032 35.3011 58.04C35.3011 58.2032 34.8593 58.64 33.9586 58.64C33.058 58.64 32.458 58.3244 32.458 58.04C32.458 57.7557 32.8055 57.7363 32.8055 57.1769C32.8055 56.6188 32.7424 55.955 32.7424 55.955Z" fill="#FFE8E3"/>
</g>
<mask id="mask5" mask-type="alpha" maskUnits="userSpaceOnUse" x="23" y="40" width="21" height="21">
<path d="M23.9407 50.3857C23.9407 55.7364 28.2775 60.0739 33.6282 60.0739C38.9782 60.0739 43.3151 55.7364 43.3151 50.3857C43.3151 45.0357 38.9782 40.6982 33.6282 40.6982C28.2775 40.6982 23.9407 45.0357 23.9407 50.3857Z" fill="white"/>
</mask>
<g mask="url(#mask5)">
<path fill-rule="evenodd" clip-rule="evenodd" d="M33.9955 56.9755C32.9211 56.9755 30.1411 55.1118 29.5405 54.5112C28.9405 53.9112 28.8142 51.3199 28.8142 49.4243C28.8142 47.5293 30.6148 45.2224 33.9636 45.2224C37.313 45.2224 39.0823 47.5293 39.0823 49.6768C39.0823 51.8255 39.0823 53.658 38.2923 54.448C37.5023 55.238 35.5123 56.9755 33.9955 56.9755Z" fill="#FFE8E3"/>
</g>
<mask id="mask6" mask-type="alpha" maskUnits="userSpaceOnUse" x="23" y="40" width="21" height="21">
<path d="M23.9407 50.3857C23.9407 55.7364 28.2775 60.0739 33.6282 60.0739C38.9782 60.0739 43.3151 55.7364 43.3151 50.3857C43.3151 45.0357 38.9782 40.6982 33.6282 40.6982C28.2775 40.6982 23.9407 45.0357 23.9407 50.3857Z" fill="white"/>
</mask>
<g mask="url(#mask6)">
<path fill-rule="evenodd" clip-rule="evenodd" d="M28.8928 52.3941C28.6978 52.3941 28.229 48.9241 28.229 48.4822C28.229 46.7128 29.4296 45.791 29.4296 45.6016C29.4296 45.4122 29.2715 45.096 29.2715 44.7797C29.2715 44.4641 29.6196 43.1372 31.5153 43.1372C33.4109 43.1372 38.1815 44.6535 38.4971 44.6535C38.8134 44.6535 38.9396 44.4641 39.2553 44.4641C39.5715 44.4641 39.2553 44.8747 39.2553 45.2541C39.2553 45.6335 39.7921 46.3597 39.7921 47.0547C39.7921 50.2053 39.1921 52.3941 38.9715 52.3941C38.7496 52.3941 38.529 47.0235 37.234 47.0235C35.9378 47.0235 35.7171 47.9391 34.3584 47.9391C32.9996 47.9391 32.3365 47.0235 30.9784 47.0235C29.3034 47.0235 29.5253 52.3941 28.8928 52.3941Z" fill="#2D242D"/>
</g>
<mask id="mask7" mask-type="alpha" maskUnits="userSpaceOnUse" x="23" y="40" width="21" height="21">
<path d="M23.9407 50.3857C23.9407 55.7364 28.2775 60.0739 33.6282 60.0739C38.9782 60.0739 43.3151 55.7364 43.3151 50.3857C43.3151 45.0357 38.9782 40.6982 33.6282 40.6982C28.2775 40.6982 23.9407 45.0357 23.9407 50.3857Z" fill="white"/>
</mask>
<g mask="url(#mask7)">
<path fill-rule="evenodd" clip-rule="evenodd" d="M31.9446 51.082C31.9446 51.3351 31.7396 51.5401 31.4864 51.5401C31.2333 51.5401 31.0283 51.3351 31.0283 51.082C31.0283 50.8295 31.2333 50.6245 31.4864 50.6245C31.7396 50.6245 31.9446 50.8295 31.9446 51.082Z" fill="#2D242D"/>
</g>
<mask id="mask8" mask-type="alpha" maskUnits="userSpaceOnUse" x="23" y="40" width="21" height="21">
<path d="M23.9407 50.3857C23.9407 55.7364 28.2775 60.0739 33.6282 60.0739C38.9782 60.0739 43.3151 55.7364 43.3151 50.3857C43.3151 45.0357 38.9782 40.6982 33.6282 40.6982C28.2775 40.6982 23.9407 45.0357 23.9407 50.3857Z" fill="white"/>
</mask>
<g mask="url(#mask8)">
<path fill-rule="evenodd" clip-rule="evenodd" d="M36.6357 51.082C36.6357 51.3351 36.4307 51.5401 36.1782 51.5401C35.9245 51.5401 35.7195 51.3351 35.7195 51.082C35.7195 50.8295 35.9245 50.6245 36.1782 50.6245C36.4307 50.6245 36.6357 50.8295 36.6357 51.082Z" fill="#2D242D"/>
</g>
<mask id="mask9" mask-type="alpha" maskUnits="userSpaceOnUse" x="23" y="40" width="21" height="21">
<path d="M23.9407 50.3857C23.9407 55.7364 28.2775 60.0739 33.6282 60.0739C38.9782 60.0739 43.3151 55.7364 43.3151 50.3857C43.3151 45.0357 38.9782 40.6982 33.6282 40.6982C28.2775 40.6982 23.9407 45.0357 23.9407 50.3857Z" fill="white"/>
</mask>
<g mask="url(#mask9)">
<path fill-rule="evenodd" clip-rule="evenodd" d="M33.7701 55.7749C34.6076 55.7749 35.3251 55.2624 35.627 54.5342C35.7789 54.168 35.5007 53.7661 35.1045 53.7661H32.4357C32.0395 53.7661 31.7614 54.168 31.9132 54.5342C32.2151 55.2624 32.9326 55.7749 33.7701 55.7749Z" fill="#2D242D"/>
</g>
<mask id="mask10" mask-type="alpha" maskUnits="userSpaceOnUse" x="31" y="53" width="5" height="3">
<path d="M32.4357 53.7656C32.0401 53.7656 31.7613 54.1675 31.9132 54.5338C32.2151 55.2619 32.9326 55.7744 33.7701 55.7744C34.6076 55.7744 35.3257 55.2619 35.6269 54.5338C35.7788 54.1675 35.5007 53.7656 35.1044 53.7656" fill="white"/>
</mask>
<g mask="url(#mask10)">
<path fill-rule="evenodd" clip-rule="evenodd" d="M33.7671 54.9441C33.134 54.9441 32.6208 55.0685 32.6208 55.8435H34.9133C34.9133 55.0685 34.4002 54.9441 33.7671 54.9441Z" fill="#F193AF"/>
</g>
<mask id="mask11" mask-type="alpha" maskUnits="userSpaceOnUse" x="33" y="50" width="2" height="3">
<path d="M33.3074 52.8344C33.7986 53.3257 34.9618 52.5475 34.9618 52.5475L33.8018 50.0144C33.8018 50.0144 32.8155 52.3425 33.3074 52.8344Z" fill="white"/>
</mask>
<g mask="url(#mask11)">
<path fill-rule="evenodd" clip-rule="evenodd" d="M33.3074 52.8344C33.7986 53.3257 34.9618 52.5475 34.9618 52.5475L33.8018 50.0144C33.8018 50.0144 32.8155 52.3425 33.3074 52.8344Z" fill="url(#paint0_linear)"/>
</g>
<path fill-rule="evenodd" clip-rule="evenodd" d="M49.561 43.1118H57.8292C58.1742 43.1118 58.4542 43.3918 58.4542 43.7368V43.8462C58.4542 44.1918 58.1742 44.4712 57.8292 44.4712H49.561C49.216 44.4712 48.936 44.1918 48.936 43.8462V43.7368C48.936 43.3918 49.216 43.1118 49.561 43.1118Z" fill="#FF8382"/>
<path fill-rule="evenodd" clip-rule="evenodd" d="M49.561 57.3879H54.4298C54.7748 57.3879 55.0548 57.6679 55.0548 58.0129V58.1229C55.0548 58.4686 54.7748 58.7479 54.4298 58.7479H49.561C49.216 58.7479 48.936 58.4686 48.936 58.1229V58.0129C48.936 57.6679 49.216 57.3879 49.561 57.3879Z" fill="#FF8382"/>
<path fill-rule="evenodd" clip-rule="evenodd" d="M57.719 57.3879H60.5477C60.8934 57.3879 61.1727 57.6679 61.1727 58.0129V58.1229C61.1727 58.4686 60.8934 58.7479 60.5477 58.7479H57.719C57.374 58.7479 57.094 58.4686 57.094 58.1229V58.0129C57.094 57.6679 57.374 57.3879 57.719 57.3879Z" fill="#FF8382"/>
<path fill-rule="evenodd" clip-rule="evenodd" d="M71.9956 57.3879H74.8244C75.1694 57.3879 75.4494 57.6679 75.4494 58.0129V58.1229C75.4494 58.4686 75.1694 58.7479 74.8244 58.7479H71.9956C71.65 58.7479 71.3706 58.4686 71.3706 58.1229V58.0129C71.3706 57.6679 71.65 57.3879 71.9956 57.3879Z" fill="#FF8382"/>
<path fill-rule="evenodd" clip-rule="evenodd" d="M63.8376 57.3879H68.7058C69.0514 57.3879 69.3308 57.6679 69.3308 58.0129V58.1229C69.3308 58.4686 69.0514 58.7479 68.7058 58.7479H63.8376C63.492 58.7479 63.2126 58.4686 63.2126 58.1229V58.0129C63.2126 57.6679 63.492 57.3879 63.8376 57.3879Z" fill="#FF8382"/>
<path fill-rule="evenodd" clip-rule="evenodd" d="M61.7979 43.1118H64.6266C64.9722 43.1118 65.2516 43.3918 65.2516 43.7368V43.8462C65.2516 44.1918 64.9722 44.4712 64.6266 44.4712H61.7979C61.4529 44.4712 61.1729 44.1918 61.1729 43.8462V43.7368C61.1729 43.3918 61.4529 43.1118 61.7979 43.1118Z" fill="#FF8382"/>
<path fill-rule="evenodd" clip-rule="evenodd" d="M49.561 47.8708H74.8248C75.1698 47.8708 75.4498 48.1502 75.4498 48.4958V48.6052C75.4498 48.9508 75.1698 49.2302 74.8248 49.2302H49.561C49.216 49.2302 48.936 48.9508 48.936 48.6052V48.4958C48.936 48.1502 49.216 47.8708 49.561 47.8708Z" fill="#FF8382"/>
<path fill-rule="evenodd" clip-rule="evenodd" d="M49.561 52.6296H74.8248C75.1698 52.6296 75.4498 52.909 75.4498 53.2546V53.364C75.4498 53.7096 75.1698 53.989 74.8248 53.989H49.561C49.216 53.989 48.936 53.7096 48.936 53.364V53.2546C48.936 52.909 49.216 52.6296 49.561 52.6296Z" fill="#FF8382"/>
<defs>
<linearGradient id="paint0_linear" x1="33.6512" y1="51.8609" x2="34.3419" y2="51.6095" gradientUnits="userSpaceOnUse">
<stop stop-color="#EDCABC"/>
<stop offset="1" stop-color="#FFE8E2"/>
</linearGradient>
</defs>
</svg>
