<svg width="2211" height="504" viewBox="0 0 2211 504" fill="none" xmlns="http://www.w3.org/2000/svg">
<path d="M0 79.25H61.4167C122.833 79.25 245.667 79.25 368.5 59.4375C491.333 39.625 614.167 -3.8147e-06 737 13.2496C859.833 26.0039 982.667 92.8711 1105.5 132.125C1228.33 172.121 1351.17 184.504 1474 171.75C1596.83 158.5 1719.67 118.875 1842.5 85.8129C1965.33 53.2461 2088.17 26.0039 2149.58 13.2496L2211 0V317H2149.58C2088.17 317 1965.33 317 1842.5 317C1719.67 317 1596.83 317 1474 317C1351.17 317 1228.33 317 1105.5 317C982.667 317 859.833 317 737 317C614.167 317 491.333 317 368.5 317C245.667 317 122.833 317 61.4167 317H0V79.25Z" fill="url(#paint0_linear)"/>
<path d="M0 432.864H61.4167C122.833 432.864 245.667 432.864 368.5 418.381C491.333 403.898 614.167 374.932 737 384.617C859.833 393.941 982.667 442.821 1105.5 471.515C1228.33 500.753 1351.17 509.804 1474 500.481C1596.83 490.796 1719.67 461.83 1842.5 437.661C1965.33 413.855 2088.17 393.941 2149.58 384.617L2211 374.932V317H2149.58C2088.17 317 1965.33 317 1842.5 317C1719.67 317 1596.83 317 1474 317C1351.17 317 1228.33 317 1105.5 317C982.667 317 859.833 317 737 317C614.167 317 491.333 317 368.5 317C245.667 317 122.833 317 61.4167 317H0V432.864Z" fill="url(#paint1_linear)"/>
<defs>
<linearGradient id="paint0_linear" x1="2211" y1="163.5" x2="3.32629" y2="276.49" gradientUnits="userSpaceOnUse">
<stop stop-color="#29D858"/>
<stop offset="1" stop-color="#2BB7DA"/>
</linearGradient>
<linearGradient id="paint1_linear" x1="2211" y1="163.5" x2="3.32629" y2="276.49" gradientUnits="userSpaceOnUse">
<stop stop-color="#29D858"/>
<stop offset="1" stop-color="#2BB7DA"/>
</linearGradient>
</defs>
</svg>
