<svg width="1440" height="504" viewBox="0 0 1440 504" fill="none" xmlns="http://www.w3.org/2000/svg">
<path d="M0 79.25H40C80 79.25 160 79.25 240 59.4375C320 39.625 400 -3.8147e-06 480 13.2496C560 26.0039 640 92.8711 720 132.125C800 172.121 880 184.504 960 171.75C1040 158.5 1120 118.875 1200 85.8129C1280 53.2461 1360 26.0039 1400 13.2496L1440 0V317H1400C1360 317 1280 317 1200 317C1120 317 1040 317 960 317C880 317 800 317 720 317C640 317 560 317 480 317C400 317 320 317 240 317C160 317 80 317 40 317H0V79.25Z" fill="url(#paint0_linear)"/>
<path d="M0 432.864H40C80 432.864 160 432.864 240 418.381C320 403.898 400 374.932 480 384.617C560 393.941 640 442.821 720 471.515C800 500.753 880 509.804 960 500.481C1040 490.796 1120 461.83 1200 437.661C1280 413.855 1360 393.941 1400 384.617L1440 374.932V317H1400C1360 317 1280 317 1200 317C1120 317 1040 317 960 317C880 317 800 317 720 317C640 317 560 317 480 317C400 317 320 317 240 317C160 317 80 317 40 317H0V432.864Z" fill="url(#paint1_linear)"/>
<defs>
<linearGradient id="paint0_linear" x1="1440" y1="163.5" x2="3.83245e-05" y2="211.5" gradientUnits="userSpaceOnUse">
<stop stop-color="#29D858"/>
<stop offset="1" stop-color="#2BB7DA"/>
</linearGradient>
<linearGradient id="paint1_linear" x1="1440" y1="163.5" x2="3.83245e-05" y2="211.5" gradientUnits="userSpaceOnUse">
<stop stop-color="#29D858"/>
<stop offset="1" stop-color="#2BB7DA"/>
</linearGradient>
</defs>
</svg>
